<svg width="30" height="30" viewBox="0 0 30 30" fill="none" xmlns="http://www.w3.org/2000/svg">
<path d="M25.5599 21.7033C25.1829 22.5417 24.7365 23.3136 24.2194 24.0231C23.5147 24.9906 22.9376 25.6602 22.4929 26.0321C21.8033 26.6424 21.0648 26.955 20.2737 26.9727C19.7058 26.9727 19.0211 26.8172 18.2238 26.5016C17.4241 26.1876 16.6891 26.0321 16.0171 26.0321C15.3122 26.0321 14.5563 26.1876 13.7478 26.5016C12.938 26.8172 12.2857 26.9816 11.7869 26.9979C11.0284 27.029 10.2723 26.7075 9.51763 26.0321C9.03595 25.6275 8.43346 24.9343 7.71172 23.9521C6.93734 22.9032 6.30069 21.687 5.80193 20.3004C5.26777 18.8027 5 17.3524 5 15.9482C5 14.3398 5.36103 12.9526 6.08417 11.7901C6.65249 10.8563 7.40855 10.1198 8.35482 9.57906C9.30111 9.03834 10.3236 8.76279 11.4247 8.74515C12.0271 8.74515 12.8172 8.92456 13.799 9.27715C14.7781 9.63091 15.4067 9.81031 15.6823 9.81031C15.8884 9.81031 16.5868 9.60054 17.7707 9.18234C18.8903 8.79448 19.8351 8.6339 20.6092 8.69716C22.7067 8.86011 24.2826 9.6561 25.3306 11.0901C23.4547 12.1843 22.5267 13.7169 22.5451 15.6829C22.5621 17.2142 23.1392 18.4885 24.2733 19.5003C24.7873 19.97 25.3614 20.3329 26 20.5907C25.8615 20.9774 25.7153 21.3477 25.5599 21.7033ZM20.7493 3.48014C20.7493 4.68041 20.2937 5.8011 19.3857 6.8384C18.29 8.07154 16.9647 8.78412 15.5275 8.67168C15.5093 8.52769 15.4986 8.37613 15.4986 8.21688C15.4986 7.06461 16.0197 5.83147 16.945 4.82321C17.407 4.3127 17.9946 3.88823 18.7071 3.54962C19.4181 3.21606 20.0906 3.03159 20.7231 3C20.7415 3.16046 20.7493 3.32094 20.7493 3.48014Z" fill="white"/>
</svg>
