<svg width="30" height="30" viewBox="0 0 30 30" fill="none" xmlns="http://www.w3.org/2000/svg">
<path fill-rule="evenodd" clip-rule="evenodd" d="M10.3932 9.25751L10.3987 9.24376C10.3987 9.24376 10.3917 9.23612 10.3832 9.22746C10.3747 9.2188 10.3567 9.22389 10.3567 9.22389L10.3362 9.2002H10.3002H10.2642L10.2437 9.22389C10.2437 9.22389 10.2257 9.2188 10.2172 9.22746C10.2087 9.23612 10.2017 9.24376 10.2017 9.24376L10.2072 9.25751L10.2002 9.27789C10.2002 9.27789 10.2208 9.35733 10.2232 9.36703C10.2279 9.38614 10.2312 9.39352 10.2447 9.4032C10.2582 9.41288 10.2827 9.42969 10.2867 9.43224C10.2907 9.43479 10.2957 9.43912 10.3002 9.43912C10.3047 9.43912 10.3097 9.43479 10.3137 9.43224C10.3177 9.42969 10.3422 9.41288 10.3557 9.4032C10.3692 9.39352 10.3724 9.38614 10.3772 9.36703C10.3796 9.35733 10.4002 9.27789 10.4002 9.27789L10.3932 9.25751Z" fill="url(#paint0_linear_72_2112)"/>
<path fill-rule="evenodd" clip-rule="evenodd" d="M10.2998 9.3486C10.3011 9.3486 10.3099 9.35176 10.317 9.35547C10.324 9.35919 10.3291 9.36182 10.3308 9.36286C10.3324 9.3639 10.3314 9.36586 10.3299 9.36693C10.3284 9.368 10.3084 9.38376 10.3065 9.38551C10.3046 9.38725 10.3017 9.39013 10.2998 9.39013C10.2978 9.39013 10.295 9.38725 10.293 9.38551C10.2911 9.38376 10.2711 9.368 10.2696 9.36693C10.2682 9.36586 10.2672 9.3639 10.2688 9.36286C10.2704 9.36182 10.2755 9.35919 10.2826 9.35547C10.2896 9.35176 10.2984 9.3486 10.2998 9.3486ZM10.2999 9.23633C10.3006 9.23635 10.3043 9.23653 10.3098 9.23838C10.3158 9.24042 10.3223 9.24296 10.3253 9.24296C10.3283 9.24296 10.3505 9.23863 10.3505 9.23863C10.3505 9.23863 10.3769 9.27111 10.3769 9.27805C10.3769 9.28499 10.3736 9.28682 10.3702 9.29043C10.3669 9.29404 10.3523 9.3098 10.3505 9.31182C10.3486 9.31384 10.3447 9.31691 10.347 9.32243C10.3493 9.32796 10.3527 9.33498 10.3489 9.34211C10.3451 9.34924 10.3387 9.354 10.3346 9.35321C10.3305 9.35242 10.3208 9.34726 10.3172 9.34491C10.3136 9.34255 10.3024 9.33307 10.3024 9.32944C10.3024 9.32581 10.314 9.31929 10.3162 9.31781C10.3183 9.31633 10.3282 9.3106 10.3284 9.30835C10.3286 9.3061 10.3285 9.30544 10.3256 9.29988C10.3227 9.29432 10.3175 9.2869 10.3183 9.28197C10.3192 9.27703 10.3276 9.27446 10.3337 9.27215C10.3397 9.26983 10.3513 9.26546 10.3527 9.26478C10.3541 9.2641 10.3538 9.26346 10.3494 9.26303C10.345 9.26261 10.3326 9.26093 10.327 9.26252C10.3214 9.26411 10.3118 9.26654 10.311 9.26782C10.3102 9.2691 10.3095 9.26915 10.3103 9.27358C10.3111 9.27801 10.3152 9.29928 10.3156 9.30305C10.316 9.30683 10.3168 9.30933 10.3128 9.31026C10.3088 9.31119 10.3021 9.31281 10.2998 9.31281C10.2975 9.31281 10.2907 9.31119 10.2867 9.31026C10.2827 9.30933 10.2835 9.30683 10.2839 9.30305C10.2843 9.29928 10.2884 9.27801 10.2892 9.27358C10.29 9.26915 10.2893 9.2691 10.2885 9.26782C10.2878 9.26654 10.2782 9.26411 10.2726 9.26252C10.267 9.26093 10.2545 9.26261 10.2502 9.26303C10.2458 9.26346 10.2454 9.2641 10.2468 9.26478C10.2483 9.26546 10.2599 9.26983 10.2659 9.27215C10.2719 9.27446 10.2803 9.27703 10.2812 9.28197C10.2821 9.2869 10.2768 9.29432 10.2739 9.29988C10.271 9.30544 10.271 9.3061 10.2712 9.30835C10.2714 9.3106 10.2812 9.31633 10.2834 9.31781C10.2855 9.31929 10.2972 9.32581 10.2972 9.32944C10.2972 9.33307 10.2859 9.34255 10.2823 9.34491C10.2788 9.34726 10.2691 9.35242 10.265 9.35321C10.2608 9.354 10.2544 9.34924 10.2506 9.34211C10.2469 9.33498 10.2503 9.32796 10.2526 9.32243C10.2548 9.31691 10.2509 9.31384 10.2491 9.31182C10.2472 9.3098 10.2326 9.29404 10.2293 9.29043C10.226 9.28682 10.2227 9.28499 10.2227 9.27805C10.2227 9.27111 10.249 9.23863 10.249 9.23863C10.249 9.23863 10.2713 9.24296 10.2743 9.24296C10.2773 9.24296 10.2838 9.24042 10.2898 9.23838C10.2952 9.23653 10.299 9.23635 10.2997 9.23633H10.2999Z" fill="white"/>
<path d="M10.3563 9.22389L10.3358 9.2002H10.2998H10.2638L10.2433 9.22389C10.2433 9.22389 10.2253 9.2188 10.2168 9.22746C10.2168 9.22746 10.2408 9.22525 10.249 9.23892C10.249 9.23892 10.2713 9.24325 10.2743 9.24325C10.2773 9.24325 10.2838 9.2407 10.2898 9.23866C10.2958 9.23663 10.2998 9.23661 10.2998 9.23661C10.2998 9.23661 10.3038 9.23663 10.3098 9.23866C10.3158 9.2407 10.3223 9.24325 10.3253 9.24325C10.3283 9.24325 10.3505 9.23892 10.3505 9.23892C10.3588 9.22525 10.3828 9.22746 10.3828 9.22746C10.3743 9.2188 10.3563 9.22389 10.3563 9.22389Z" fill="url(#paint1_linear_72_2112)"/>
<mask id="mask0_72_2112" style="mask-type:luminance" maskUnits="userSpaceOnUse" x="3" y="3" width="24" height="24">
<path d="M26.1818 12.8182H15V17.4545H21.4364C20.8364 20.4 18.3273 22.0909 15 22.0909C11.0727 22.0909 7.90909 18.9273 7.90909 15C7.90909 11.0727 11.0727 7.90909 15 7.90909C16.6909 7.90909 18.2182 8.50909 19.4182 9.49091L22.9091 6C20.7818 4.14545 18.0545 3 15 3C8.34545 3 3 8.34545 3 15C3 21.6545 8.34545 27 15 27C21 27 26.4545 22.6364 26.4545 15C26.4545 14.2909 26.3455 13.5273 26.1818 12.8182Z" fill="white"/>
</mask>
<g mask="url(#mask0_72_2112)">
<path d="M1.90918 22.091V7.90918L11.1819 15.0001L1.90918 22.091Z" fill="#FBBC05"/>
</g>
<mask id="mask1_72_2112" style="mask-type:luminance" maskUnits="userSpaceOnUse" x="3" y="3" width="24" height="24">
<path d="M26.1818 12.8182H15V17.4545H21.4364C20.8364 20.4 18.3273 22.0909 15 22.0909C11.0727 22.0909 7.90909 18.9273 7.90909 15C7.90909 11.0727 11.0727 7.90909 15 7.90909C16.6909 7.90909 18.2182 8.50909 19.4182 9.49091L22.9091 6C20.7818 4.14545 18.0545 3 15 3C8.34545 3 3 8.34545 3 15C3 21.6545 8.34545 27 15 27C21 27 26.4545 22.6364 26.4545 15C26.4545 14.2909 26.3455 13.5273 26.1818 12.8182Z" fill="white"/>
</mask>
<g mask="url(#mask1_72_2112)">
<path d="M1.90918 7.90918L11.1819 15.0001L15.0001 11.6728L28.091 9.54554V1.90918H1.90918V7.90918Z" fill="#EA4335"/>
</g>
<mask id="mask2_72_2112" style="mask-type:luminance" maskUnits="userSpaceOnUse" x="3" y="3" width="24" height="24">
<path d="M26.1818 12.8182H15V17.4545H21.4364C20.8364 20.4 18.3273 22.0909 15 22.0909C11.0727 22.0909 7.90909 18.9273 7.90909 15C7.90909 11.0727 11.0727 7.90909 15 7.90909C16.6909 7.90909 18.2182 8.50909 19.4182 9.49091L22.9091 6C20.7818 4.14545 18.0545 3 15 3C8.34545 3 3 8.34545 3 15C3 21.6545 8.34545 27 15 27C21 27 26.4545 22.6364 26.4545 15C26.4545 14.2909 26.3455 13.5273 26.1818 12.8182Z" fill="white"/>
</mask>
<g mask="url(#mask2_72_2112)">
<path d="M1.90918 22.091L18.2728 9.54554L22.5819 10.091L28.091 1.90918V28.091H1.90918V22.091Z" fill="#34A853"/>
</g>
<mask id="mask3_72_2112" style="mask-type:luminance" maskUnits="userSpaceOnUse" x="3" y="3" width="24" height="24">
<path d="M26.1818 12.8182H15V17.4545H21.4364C20.8364 20.4 18.3273 22.0909 15 22.0909C11.0727 22.0909 7.90909 18.9273 7.90909 15C7.90909 11.0727 11.0727 7.90909 15 7.90909C16.6909 7.90909 18.2182 8.50909 19.4182 9.49091L22.9091 6C20.7818 4.14545 18.0545 3 15 3C8.34545 3 3 8.34545 3 15C3 21.6545 8.34545 27 15 27C21 27 26.4545 22.6364 26.4545 15C26.4545 14.2909 26.3455 13.5273 26.1818 12.8182Z" fill="white"/>
</mask>
<g mask="url(#mask3_72_2112)">
<path d="M28.0909 28.091L11.1818 15.0001L9 13.3637L28.0909 7.90918V28.091Z" fill="#4285F4"/>
</g>
<defs>
<linearGradient id="paint0_linear_72_2112" x1="10.2002" y1="21.3152" x2="30.2001" y2="21.3152" gradientUnits="userSpaceOnUse">
<stop stop-color="#FF5500"/>
<stop offset="0.409877" stop-color="#FF5500"/>
<stop offset="0.581981" stop-color="#FF2000"/>
<stop offset="1" stop-color="#FF2000"/>
</linearGradient>
<linearGradient id="paint1_linear_72_2112" x1="10.5734" y1="11.3832" x2="26.8167" y2="11.3832" gradientUnits="userSpaceOnUse">
<stop stop-color="#FF452A"/>
<stop offset="1" stop-color="#FF2000"/>
</linearGradient>
</defs>
</svg>
