<svg width="30" height="30" viewBox="0 0 30 30" fill="none" xmlns="http://www.w3.org/2000/svg">
<path d="M14.9914 4C8.35333 4 3 8.43173 3 13.8119C3 17.3042 5.22698 20.3622 8.56746 22.1082L7.43683 26.4781C7.41552 26.5434 7.41225 26.6139 7.42738 26.681C7.44251 26.7483 7.47543 26.8101 7.5225 26.8592C7.59111 26.9216 7.6794 26.9563 7.77089 26.9565C7.84674 26.9503 7.91871 26.9192 7.97645 26.868L12.8416 23.4733C13.5597 23.5758 14.2836 23.629 15.0086 23.6327C21.6382 23.6327 27 19.201 27 13.8119C27 8.42288 21.6209 4 14.9914 4Z" fill="#181600"/>
</svg>
